<svg width="644" height="374" viewBox="0 0 644 374" fill="none" xmlns="http://www.w3.org/2000/svg">
<path d="M81.0655 195.8C81.0655 201.284 79.7992 206.292 77.283 210.831C74.7832 215.37 70.9185 219.038 65.7052 221.817C60.5083 224.605 54.0451 225.994 46.332 225.994H32.0241V259.938H9V165.375H46.332C53.8724 165.375 60.2451 166.682 65.442 169.289C70.6553 171.879 74.5612 175.465 77.1514 180.045C79.7581 184.633 81.0655 189.879 81.0655 195.8ZM44.5558 207.674C48.9633 207.674 52.236 206.646 54.3904 204.582C56.5613 202.501 57.6467 199.574 57.6467 195.8C57.6467 192.034 56.5613 189.115 54.3904 187.051C52.236 184.995 48.9633 183.959 44.5558 183.959H32.0241V207.674H44.5558Z" fill="black"/>
<path d="M88.4854 222.192C88.4854 214.479 89.9408 207.703 92.8599 201.865C95.7708 196.01 99.7425 191.52 104.767 188.379C109.807 185.246 115.424 183.676 121.607 183.676C126.911 183.676 131.557 184.753 135.553 186.899C139.566 189.054 142.641 191.882 144.796 195.385V184.728H167.82V259.919H144.796V249.262C142.534 252.773 139.41 255.61 135.422 257.781C131.425 259.927 126.779 261.004 121.476 261.004C115.374 261.004 109.807 259.417 104.767 256.235C99.7425 253.036 95.7708 248.497 92.8599 242.618C89.9408 236.722 88.4854 229.913 88.4854 222.192ZM144.796 222.323C144.796 216.584 143.192 212.053 139.994 208.739C136.811 205.409 132.93 203.74 128.35 203.74C123.762 203.74 119.872 205.384 116.673 208.673C113.491 211.946 111.904 216.452 111.904 222.192C111.904 227.94 113.491 232.503 116.673 235.875C119.872 239.23 123.762 240.907 128.35 240.907C132.93 240.907 136.811 239.254 139.994 235.941C143.192 232.61 144.796 228.071 144.796 222.323Z" fill="black"/>
<path d="M261.363 184.695L214.197 295.573H189.396L206.664 257.32L176.075 184.695H201.796L219.196 231.73L236.431 184.695H261.363Z" fill="black"/>
<path d="M332.461 195.271C330.75 192.138 328.292 189.737 325.093 188.068C321.911 186.407 318.161 185.568 313.844 185.568C306.386 185.568 300.408 188.018 295.918 192.903C291.445 197.795 289.208 204.333 289.208 212.506C289.208 221.239 291.56 228.048 296.28 232.932C300.991 237.825 307.479 240.267 315.752 240.267C321.409 240.267 326.186 238.836 330.092 235.958C333.99 233.088 336.843 228.952 338.644 223.558H309.404V206.586H359.53V227.998C357.82 233.746 354.909 239.099 350.814 244.049C346.736 248.983 341.547 252.979 335.256 256.022C328.982 259.073 321.902 260.594 314.008 260.594C304.667 260.594 296.329 258.555 289.011 254.476C281.684 250.397 275.969 244.724 271.874 237.438C267.796 230.161 265.756 221.847 265.756 212.506C265.756 203.165 267.796 194.843 271.874 187.541C275.969 180.223 281.651 174.516 288.912 170.438C296.189 166.343 304.503 164.287 313.844 164.287C325.175 164.287 334.73 167.034 342.493 172.51C350.255 177.995 355.394 185.584 357.919 195.271H332.461Z" fill="black"/>
<path d="M406.516 261.004C399.148 261.004 392.52 259.442 386.649 256.3C380.77 253.143 376.14 248.653 372.769 242.815C369.414 236.985 367.736 230.152 367.736 222.323C367.736 214.61 369.43 207.81 372.835 201.931C376.255 196.035 380.926 191.52 386.846 188.379C392.783 185.246 399.444 183.676 406.812 183.676C414.155 183.676 420.791 185.246 426.711 188.379C432.648 191.52 437.319 196.035 440.723 201.931C444.144 207.81 445.854 214.61 445.854 222.323C445.854 230.045 444.119 236.853 440.657 242.749C437.212 248.629 432.5 253.143 426.514 256.3C420.544 259.442 413.883 261.004 406.516 261.004ZM406.516 241.072C410.923 241.072 414.673 239.46 417.764 236.237C420.873 232.997 422.435 228.359 422.435 222.323C422.435 216.321 420.922 211.699 417.896 208.476C414.886 205.236 411.194 203.608 406.812 203.608C402.314 203.608 398.572 205.212 395.596 208.41C392.635 211.593 391.155 216.23 391.155 222.323C391.155 228.359 392.611 232.997 395.53 236.237C398.465 239.46 402.125 241.072 406.516 241.072Z" fill="black"/>
<path d="M468.926 261.015C464.864 261.015 461.559 259.83 458.993 257.462C456.444 255.078 455.178 252.126 455.178 248.614C455.178 245.021 456.444 242.02 458.993 239.602C461.559 237.168 464.864 235.951 468.926 235.951C472.873 235.951 476.113 237.168 478.662 239.602C481.228 242.02 482.511 245.021 482.511 248.614C482.511 252.126 481.228 255.078 478.662 257.462C476.113 259.83 472.873 261.015 468.926 261.015Z" fill="#118347"/>
<path d="M533.861 203.868H521.461V259.916H498.437V203.868H490.083V184.726H498.437V182.588C498.437 173.337 501.077 166.306 506.364 161.504C511.668 156.702 519.438 154.301 529.684 154.301C531.394 154.301 532.652 154.35 533.467 154.432V173.97C529.059 173.69 525.951 174.315 524.158 175.845C522.357 177.382 521.461 180.121 521.461 184.068V184.726H533.861V203.868Z" fill="#118347"/>
<path d="M556.213 176.932C552.176 176.932 548.878 175.748 546.313 173.38C543.747 170.995 542.464 168.043 542.464 164.532C542.464 160.938 543.747 157.953 546.313 155.585C548.878 153.201 552.176 152 556.213 152C560.16 152 563.416 153.201 565.982 155.585C568.547 157.953 569.83 160.938 569.83 164.532C569.83 168.043 568.547 170.995 565.982 173.38C563.416 175.748 560.16 176.932 556.213 176.932ZM567.659 184.727V259.917H544.635V184.727H567.659Z" fill="#118347"/>
<path d="M626.266 240.37V259.907H614.523C606.185 259.907 599.689 257.868 595.019 253.79C590.348 249.695 588.013 243.018 588.013 233.759V203.86H578.836V184.717H588.013V166.396H611.037V184.717H626.134V203.86H611.037V234.055C611.037 236.291 611.571 237.903 612.649 238.89C613.717 239.876 615.518 240.37 618.043 240.37H626.266Z" fill="#118347"/>
<path d="M31.1 32.8045C29.1703 33.5154 27.7891 34.9576 27.1594 36.867C26.9766 37.4357 26.7937 37.9029 26.7734 37.9232C26.7531 37.9639 26.3062 37.842 25.7781 37.6592C24.3969 37.192 22 37.3342 20.6797 37.9842C19.2984 38.6545 18.0594 39.9951 17.5516 41.356C17.1453 42.4123 17.125 42.8795 17.125 50.4764V58.4998H16.4141C14.3422 58.4998 11.8438 60.3279 11.0516 62.4607C10.4828 63.9842 10.4828 66.0154 11.0516 67.5389C11.8438 69.6514 14.3422 71.4998 16.4141 71.4998H17.1047L17.1656 79.767L17.2266 88.0545L17.7141 89.0498C18.3234 90.2889 19.4812 91.4264 20.7406 92.056C22 92.6654 24.4172 92.8076 25.7781 92.3404C26.3062 92.1576 26.7531 92.0357 26.7734 92.0764C26.7937 92.0967 26.9766 92.5842 27.1594 93.1529C27.8094 95.1232 29.4344 96.7076 31.4656 97.2967C32.7453 97.6826 35.1219 97.4795 36.3 96.8904C37.6609 96.2404 38.9609 94.8389 39.4687 93.4982C39.8547 92.4623 39.875 91.9139 39.875 81.9607V71.4998H61H82.125V81.9607C82.125 92.0154 82.1453 92.442 82.5516 93.5185C83.0391 94.8185 84.3187 96.2404 85.5984 96.9107C86.8172 97.5404 89.3969 97.6826 90.7984 97.2154C92.7687 96.5654 94.1703 95.1232 94.8406 93.1326C95.0234 92.5639 95.2062 92.0967 95.2266 92.0764C95.2469 92.0357 95.6937 92.1576 96.2219 92.3404C97.5828 92.8076 100 92.6654 101.259 92.056C102.62 91.3857 103.981 89.9436 104.469 88.6232C104.855 87.5873 104.875 87.0592 104.875 79.5232V71.4998H105.586C107.658 71.4998 110.156 69.6717 110.948 67.5389C111.517 66.0154 111.517 63.9842 110.948 62.4607C110.156 60.3279 107.658 58.4998 105.586 58.4998H104.875V50.4764C104.875 42.8795 104.855 42.4123 104.448 41.356C103.941 39.9951 102.702 38.6545 101.32 37.9842C100 37.3342 97.6031 37.192 96.2219 37.6592C95.6937 37.842 95.2469 37.9639 95.2266 37.9232C95.2062 37.9029 95.0234 37.4154 94.8406 36.8467C94.2109 34.8967 92.7891 33.4545 90.7781 32.7842C89.4172 32.317 86.8172 32.4592 85.5984 33.0889C84.3187 33.7592 83.0391 35.181 82.5516 36.481C82.1453 37.5576 82.125 37.9842 82.125 48.0389V58.4998H61H39.875V48.0389C39.875 37.9842 39.8547 37.5576 39.4484 36.481C38.9406 35.1201 37.7016 33.7795 36.3203 33.1092C35.0812 32.4998 32.3187 32.3373 31.1 32.8045ZM35 36.4201C35.3859 36.6639 35.8734 37.192 36.0969 37.5779C36.5234 38.2889 36.5234 38.4107 36.5234 64.9998C36.5234 91.5889 36.5234 91.7107 36.0969 92.4217C34.8172 94.5951 31.9328 94.5951 30.6531 92.4217C30.2266 91.7107 30.2266 91.5889 30.2266 64.9998C30.2266 38.4107 30.2266 38.2889 30.6531 37.5779C31.2625 36.542 32.2375 35.9529 33.375 35.9529C34.025 35.9529 34.5531 36.0951 35 36.4201ZM90.25 36.4201C90.6359 36.6639 91.1234 37.192 91.3469 37.5779C91.7734 38.2889 91.7734 38.4107 91.7734 64.9998C91.7734 91.5889 91.7734 91.7107 91.3469 92.4217C90.0672 94.5951 87.1828 94.5951 85.9031 92.4217C85.4766 91.7107 85.4766 91.5889 85.4766 64.9998C85.4766 38.4107 85.4766 38.2889 85.9031 37.5779C86.5125 36.542 87.4875 35.9529 88.625 35.9529C89.275 35.9529 89.8031 36.0951 90.25 36.4201ZM25.25 41.2951C25.6359 41.5389 26.1234 42.067 26.3469 42.4529C26.7734 43.1639 26.7734 43.3467 26.7734 64.9998C26.7734 86.6529 26.7734 86.8357 26.3469 87.5467C25.0672 89.7201 22.1828 89.7201 20.9031 87.5467C20.4766 86.8357 20.4766 86.6529 20.4766 64.9998C20.4766 43.3467 20.4766 43.1639 20.9031 42.4529C21.5125 41.417 22.4875 40.8279 23.625 40.8279C24.275 40.8279 24.8031 40.9701 25.25 41.2951ZM100 41.2951C100.386 41.5389 100.873 42.067 101.097 42.4529C101.523 43.1639 101.523 43.3467 101.523 64.9998C101.523 86.6529 101.523 86.8357 101.097 87.5467C99.8172 89.7201 96.9328 89.7201 95.6531 87.5467C95.2266 86.8357 95.2266 86.6529 95.2266 64.9998C95.2266 43.3467 95.2266 43.1639 95.6531 42.4529C96.2625 41.417 97.2375 40.8279 98.375 40.8279C99.025 40.8279 99.5531 40.9701 100 41.2951ZM82.125 64.9998V68.2498H61H39.875V64.9998V61.7498H61H82.125V64.9998ZM17.125 64.9998C17.125 68.0264 17.125 68.0467 16.6781 68.0467C15.3781 68.0467 14.0781 66.5029 14.0781 64.9998C14.0781 63.4967 15.3781 61.9529 16.6781 61.9529C17.125 61.9529 17.125 61.9732 17.125 64.9998ZM106.459 62.3592C108.409 63.5576 108.409 66.442 106.459 67.6404C106.094 67.8639 105.586 68.0467 105.342 68.0467C104.875 68.0467 104.875 68.0264 104.875 64.9998C104.875 61.9732 104.875 61.9529 105.342 61.9529C105.586 61.9529 106.094 62.1357 106.459 62.3592Z" fill="black"/>
<path d="M249.321 34.9599C248.299 35.3562 217.892 49.7467 215.889 50.7686C211.406 53.0836 209.591 58.2141 211.656 62.7189C211.948 63.3655 213.074 65.4719 214.2 67.4323C215.306 69.3928 216.119 71.0612 216.035 71.1655C215.931 71.2489 209.508 75.0447 201.791 79.5912L187.713 87.8501H186.191C183.855 87.8501 183 88.4966 183 90.2693C183 90.8325 183.167 91.187 183.688 91.6875C184.293 92.3132 184.502 92.3758 186.066 92.5009C188.172 92.6678 189.59 93.1474 192.156 94.6073C195.534 96.5261 198.204 97.1726 201.874 96.9432C205.107 96.7555 206.901 96.1507 210.842 93.8982C214.492 91.8335 218.976 91.9795 222.834 94.3154C225.796 96.0881 227.84 96.7555 230.968 96.964C234.493 97.1726 237.371 96.4844 240.624 94.6282C243.774 92.8137 244.608 92.5635 247.549 92.5635C250.489 92.5635 251.177 92.772 254.16 94.4614C257.726 96.4844 260.521 97.1726 264.233 96.964C266.944 96.7972 268.592 96.2758 271.971 94.5031C274.828 93.0014 276.58 92.4383 278.498 92.4383C279.479 92.4383 279.687 92.3549 280.313 91.7292C281.105 90.9367 281.251 89.9357 280.709 88.9137C280.25 88.0169 279.416 87.7667 277.185 87.9127C274.724 88.0586 272.429 88.8094 269.614 90.4153C266.903 91.9587 265.61 92.3132 262.982 92.2924C260.583 92.2715 258.957 91.8335 256.996 90.6448C255.223 89.5603 252.908 88.5592 251.553 88.2463L250.364 87.9961L241.438 74.9404C236.516 67.766 232.428 61.7804 232.345 61.6344C232.24 61.4467 235.911 59.528 244.253 55.336C252.658 51.1231 256.6 49.0584 257.267 48.4745C259.165 46.7851 260.229 43.7193 259.77 41.2167C259.29 38.6097 257.684 36.4616 255.411 35.3771C254.41 34.8765 253.91 34.7931 252.137 34.7305C250.739 34.6888 249.801 34.7722 249.321 34.9599ZM253.576 39.7359C254.702 40.3616 255.203 41.3627 255.098 42.7183C254.952 44.7204 255.328 44.491 241.625 51.3317C233.846 55.2317 228.987 57.797 228.632 58.1515C227.464 59.382 227.068 61.5719 227.715 63.136C227.882 63.5323 231.74 69.2468 236.266 75.8372C240.812 82.4484 244.524 87.8709 244.524 87.9335C244.524 87.9752 244.024 88.1212 243.44 88.2672C242.147 88.5592 239.456 89.7897 237.955 90.749C236.245 91.8335 234.535 92.2715 232.011 92.2715C229.3 92.2715 228.09 91.917 225.233 90.2693C224.086 89.6228 222.396 88.8303 221.479 88.5175C219.936 87.9961 219.56 87.9544 216.369 87.9544C213.137 87.9752 212.824 87.9961 211.26 88.5383C210.342 88.872 208.715 89.6437 207.651 90.2693C204.878 91.8752 203.585 92.2715 201.04 92.2924C198.621 92.3132 197.182 91.9587 195.055 90.8116C194.262 90.3945 193.636 89.9982 193.636 89.9357C193.636 89.8731 199.142 86.5987 205.879 82.6362C212.615 78.6736 218.517 75.1698 218.997 74.857C220.665 73.7516 221.416 71.2281 220.645 69.351C220.478 68.9339 219.268 66.7649 217.996 64.5334C215.994 61.0296 215.66 60.2788 215.577 59.3403C215.452 57.943 215.91 56.6708 216.849 55.7948C217.287 55.3568 222.125 52.9584 231.281 48.6413C238.852 45.0541 246.401 41.4878 248.07 40.6953C251.449 39.0894 252.22 38.9642 253.576 39.7359Z" fill="black"/>
<path d="M259.417 53.934C256.288 54.6431 253.827 56.0196 251.512 58.3346C248.134 61.7341 246.674 65.4673 246.882 70.3266C247.07 74.6438 248.53 77.9181 251.596 80.9631C254.536 83.8829 257.769 85.3011 261.961 85.4888C265.089 85.6556 267.112 85.2385 269.97 83.8412C271.867 82.9235 272.368 82.5481 274.036 80.8796C276.101 78.8149 277.248 76.9379 278.103 74.185C278.729 72.2037 278.896 68.4913 278.458 66.4266C277.207 60.5662 273.098 56.0822 267.363 54.2677C265.486 53.6838 261.314 53.4961 259.417 53.934ZM265.006 58.5432C267.279 59.0228 269.01 59.9613 270.7 61.6507C272.889 63.8405 274.12 66.7395 274.141 69.7218C274.141 71.0357 273.432 73.6844 272.743 74.9775C271.45 77.355 268.927 79.4615 266.257 80.3791C264.297 81.0465 261.252 81.0465 259.291 80.3791C255.433 79.0443 252.555 75.8117 251.721 71.8908C251.345 70.0555 251.345 69.1379 251.721 67.3026C252.618 63.048 256.163 59.4817 260.439 58.5432C262.149 58.1678 263.296 58.1678 265.006 58.5432Z" fill="black"/>
<path d="M382.522 98.0277C383.26 97.924 384.562 97.5244 385.415 97.1624C386.829 96.5653 387.508 96.0315 392.522 91.5555L398.069 86.5991L400.749 85.926C403.923 85.1161 415.233 82.3531 426.665 79.5965C431.176 78.511 435.01 77.5323 435.178 77.4394C435.579 77.1554 436.215 74.7278 436.301 73.0849C436.491 69.4544 435.249 66.3793 432.954 64.7744C432.306 64.3337 432.288 64.292 432.357 62.9737C432.445 61.2903 432.098 59.3807 431.479 57.9856C430.571 55.9043 428.292 53.9951 426.201 53.5397L425.396 53.3755L425.338 52.1522C425.21 48.7694 422.846 46.144 418.899 45.0016L417.517 44.6038L417.354 43.436C416.777 39.7042 413.2 36.9339 408.679 36.6766C407.36 36.6075 407.321 36.5851 406.95 35.8945C405.929 34.0309 403.809 32.5775 401.317 31.9995C399.769 31.654 396.964 31.629 395.543 31.9613L394.617 32.1771L393.744 34.4703C393.272 35.7268 391.131 41.6549 389.027 47.646C386.903 53.636 384.376 60.7235 383.38 63.417L381.619 68.3074L376.11 73.3065C371.113 77.8444 370.512 78.4434 369.77 79.7875C367.119 84.5906 367.704 90.1125 371.317 94.1254C374.22 97.3282 378.234 98.7385 382.522 98.0277ZM377.731 95.153C373.21 93.7161 370.252 89.2291 370.874 84.7264C371.07 83.313 371.705 81.6786 372.519 80.501L373.006 79.7537L379.406 86.8616L385.806 93.9695L384.575 94.5558C382.24 95.6537 379.931 95.8581 377.731 95.153ZM381.376 84.9717L374.938 77.8211L378.523 74.6126L382.088 71.3827L388.565 78.576L395.061 85.7906L391.539 88.9618C389.597 90.7107 387.977 92.1308 387.916 92.1276C387.855 92.1244 384.912 88.8992 381.376 84.9717ZM413.703 75.4598C422.901 70.715 430.59 66.8063 430.774 66.7753C431.289 66.6599 432.769 68.3035 433.253 69.5491C433.612 70.4628 433.666 70.9741 433.57 72.7995C433.508 73.9961 433.351 75.0455 433.243 75.1619C433.116 75.2569 427.696 76.6202 421.167 78.1898C414.659 79.7401 406.644 81.6996 403.346 82.5437C400.069 83.3685 397.309 84.0373 397.186 84.0512C397.084 84.0662 404.507 80.1843 413.703 75.4598ZM394.205 79.624C394.545 79.3368 401.462 73.8624 409.628 67.4568C423.691 56.4182 424.474 55.8288 425.076 55.9823C427.024 56.4505 428.465 57.6853 429.18 59.5532C429.612 60.6334 429.687 61.1457 429.612 62.5655L429.543 64.2702L412.404 73.0935L395.264 81.9167L394.437 81.0192L393.628 80.143L394.205 79.624ZM391.052 73.8049C391.934 72.8952 398.103 66.5478 404.747 59.6963L416.809 47.2512L417.715 47.4208C419.063 47.6948 420.823 48.6615 421.549 49.5538C422.351 50.5517 422.806 51.9585 422.668 53.0292L422.563 53.8779L407.184 65.9661L391.806 78.0543L390.613 76.7512L389.419 75.4684L391.052 73.8049ZM386.272 71.1138C386.449 70.8384 391.203 63.5625 396.839 54.9703L407.075 39.3381L408.799 39.4285C410.217 39.5232 410.7 39.6298 411.749 40.1729C413.531 41.1002 414.609 42.6616 414.871 44.6481C414.96 45.263 414.27 46.0199 401.286 59.3726L387.614 73.4417L386.787 72.5238C385.998 71.669 385.981 71.6071 386.272 71.1138ZM386.154 63.664C387.297 60.4699 390.106 52.665 392.352 46.2949C394.618 39.9259 396.542 34.6372 396.65 34.5208C396.777 34.4258 397.837 34.3797 399.034 34.4424C400.859 34.5381 401.362 34.6458 402.233 35.0982C403.342 35.6647 404.883 37.3115 404.756 37.793C404.679 38.094 384.158 69.5387 384.08 69.4736C384.06 69.4523 384.991 66.8368 386.154 63.664Z" fill="black"/>
<path d="M569.967 31.8824C563.974 32.5583 557.8 35.171 552.952 39.0706C551.392 40.3185 548.493 43.3082 547.323 44.868C544.594 48.5076 542.631 52.6412 541.565 56.9697C540.824 59.9984 540.72 60.9733 540.72 65.0028C540.72 69.0324 540.824 70.0073 541.565 73.036C542.436 76.5586 544.126 80.4452 546.062 83.3309C549.845 88.9853 555.382 93.5218 561.414 95.9265C565.599 97.5904 569.278 98.2793 573.931 98.2793C579.417 98.2793 584.135 97.1874 588.802 94.8477C592.337 93.0669 595.041 91.0781 597.849 88.1924C602.957 82.9409 606.116 76.3636 607.013 69.1624C607.273 67.0436 607.273 62.9621 607.013 60.8433C606.272 54.9029 603.815 49.0146 600.098 44.2961C599.149 43.0872 595.847 39.7855 594.638 38.8366C589.907 35.106 584.044 32.6623 578.091 31.9214C576.31 31.7004 571.735 31.6744 569.967 31.8824ZM577.311 35.886C585.929 36.9518 593.65 41.7223 598.395 48.9366C599.214 50.1844 600.176 51.8872 600.514 52.7062L600.735 53.2131L599.903 52.5502C597.056 50.2234 593.494 48.3256 589.855 47.2077C583.459 45.232 576.232 45.5049 570.175 47.9617L569.486 48.2476L569.577 47.3637C569.98 43.4121 571.488 39.7725 574.022 36.6269L574.724 35.756H575.465C575.881 35.756 576.713 35.821 577.311 35.886ZM569.057 36.5619C568.394 37.6278 567.055 40.5135 566.652 41.7353C566.431 42.4113 566.093 43.6981 565.911 44.595C565.586 46.1029 565.56 46.4538 565.56 49.3395C565.56 52.2382 565.586 52.5762 565.911 54.097C566.106 55.0069 566.444 56.2938 566.665 56.9567C567.497 59.5044 569.291 62.7411 570.942 64.7299L571.644 65.5618L571.41 66.2247C570.474 68.9284 568.212 72.2821 566.028 74.1929L565.261 74.8688L564.104 73.9979C558.177 69.5394 554.511 62.7931 553.914 55.2279C553.602 51.3803 554.382 46.8698 555.954 43.4381C557.02 41.0724 557.007 41.0984 558.268 40.2795C561.167 38.3817 565.495 36.7049 568.992 36.1069C569.174 36.0809 569.33 36.0419 569.356 36.0289C569.382 36.0289 569.239 36.2629 569.057 36.5619ZM550.196 48.6506C549.481 52.7452 549.767 57.5156 550.976 61.7012C552.081 65.5358 553.901 69.0844 556.318 72.0871C557.293 73.309 559.477 75.5057 560.647 76.4546L561.609 77.2215L560.647 77.6635C557.124 79.2883 552.432 79.8343 548.766 79.0413L548.09 78.8984L547.414 77.4425C546.153 74.7258 545.191 71.3722 544.815 68.3825C544.75 67.7845 544.685 66.2637 544.685 65.0028C544.685 62.4811 544.802 61.2592 545.256 59.0235C546.01 55.4099 547.531 51.8093 549.65 48.6506C550.001 48.1436 550.3 47.7147 550.313 47.7147C550.339 47.7147 550.287 48.1436 550.196 48.6506ZM584.291 50.1194C591.259 51.0293 597.498 54.6689 601.579 60.2064C603.243 62.4551 603.178 62.2471 603.178 65.0158C603.178 68.4345 602.762 71.0602 601.735 74.1929C601.514 74.8558 601.319 75.4017 601.294 75.4017C601.268 75.4017 600.93 74.8558 600.527 74.1929C597.251 68.6295 591.818 64.5349 585.656 63.0011C583.303 62.4161 582.576 62.3381 579.521 62.3511C577.35 62.3511 576.349 62.4161 575.621 62.5721L574.646 62.7801L574.217 62.2991C573.035 60.9603 571.631 58.6075 570.903 56.7487C570.448 55.5919 569.772 53.2391 569.772 52.7841C569.772 52.3942 572.892 51.1593 575.361 50.5744C578.169 49.9245 581.458 49.7555 584.291 50.1194ZM582.926 66.5497C584.304 66.7967 586.488 67.3816 586.696 67.5896C586.748 67.6416 586.735 68.2005 586.657 68.8374C585.799 76.4416 581.445 83.4349 575.01 87.5424C573.775 88.3224 571.436 89.4922 570.11 89.9732C567.77 90.8441 564.351 91.52 562.324 91.52C561.414 91.52 561.336 91.494 559.971 90.7271C557.137 89.1543 554.693 87.2565 552.562 84.9947C551.873 84.2668 551.314 83.6169 551.314 83.5649C551.314 83.4999 551.808 83.4609 552.406 83.4609C562.35 83.4609 571.293 77.4425 574.932 68.3175C575.27 67.4596 575.556 66.7447 575.569 66.7187C575.582 66.6927 576.063 66.5887 576.622 66.4977C578.208 66.2377 581.185 66.2637 582.926 66.5497ZM591.857 70.4233C594.651 72.516 597.082 75.7267 598.421 79.1323L598.902 80.3412L598.252 81.2901C594.209 87.2825 588.009 91.663 581.094 93.4048C578.455 94.0547 576.804 94.2627 573.853 94.2627C572.554 94.2627 571.332 94.2237 571.137 94.1717C570.812 94.0937 570.903 94.0288 571.995 93.5998C581.38 89.9602 588.321 81.6671 590.31 71.7361C590.453 71.0212 590.57 70.2673 590.57 70.0593C590.57 69.8513 590.635 69.6823 590.726 69.6823C590.804 69.6823 591.311 70.0203 591.857 70.4233Z" fill="black"/>
<path d="M95.92 350.28L86.44 332.08H92.76L98.76 344.84L104.72 332.08H110.96L101.52 350.28V360H95.92V350.28ZM144.63 345.96C144.63 354.36 138.27 360.28 130.35 360.28C122.47 360.28 116.03 354.36 116.03 345.96C116.03 337.6 122.47 331.68 130.35 331.68C138.31 331.68 144.63 337.6 144.63 345.96ZM121.79 345.96C121.79 351.64 125.27 355.28 130.35 355.28C135.39 355.28 138.87 351.64 138.87 345.96C138.87 340.28 135.39 336.72 130.35 336.72C125.27 336.72 121.79 340.28 121.79 345.96ZM151.916 349.32V332.08H157.516V349.36C157.516 353.2 159.596 355.2 163.156 355.2C166.756 355.2 168.836 353.2 168.836 349.36V332.08H174.476V349.32C174.476 356.68 169.196 360.28 163.076 360.28C156.956 360.28 151.916 356.68 151.916 349.32ZM197.887 340.76C197.887 338.28 196.487 336.72 193.367 336.72H188.687V344.92H193.367C196.487 344.92 197.887 343.28 197.887 340.76ZM183.087 332.08H193.567C200.287 332.08 203.647 335.96 203.647 340.64C203.647 344.04 201.767 347.48 197.287 348.68L203.967 360H197.487L191.327 349.12H188.687V360H183.087V332.08ZM224.643 360V332.08H241.883V336.6H230.243V343.76H239.163V348.2H230.243V360H224.643ZM249.054 360V332.08H254.654V360H249.054ZM261.907 336.6V332.08H282.387V336.6H274.947V360H269.347V336.6H261.907ZM307.953 332.04H313.553V360H307.953L295.273 340.84V360H289.673V332.04H295.273L307.953 351.24V332.04ZM338.487 332.04V336.6H327.887V343.6H337.287V348.04H327.887V355.44H338.487V360H322.287V332.04H338.487ZM366.296 351.92C366.296 356.32 362.776 360.28 356.416 360.28C350.616 360.28 346.136 357.24 346.056 351.96H352.056C352.216 354.2 353.696 355.68 356.296 355.68C358.936 355.68 360.496 354.28 360.496 352.28C360.496 346.24 346.096 349.88 346.136 339.76C346.136 334.72 350.216 331.68 355.976 331.68C361.696 331.68 365.616 334.6 365.976 339.64H359.816C359.696 337.8 358.216 336.36 355.816 336.32C353.616 336.24 351.976 337.32 351.976 339.6C351.976 345.2 366.296 342.08 366.296 351.92ZM393.871 351.92C393.871 356.32 390.351 360.28 383.991 360.28C378.191 360.28 373.711 357.24 373.631 351.96H379.631C379.791 354.2 381.271 355.68 383.871 355.68C386.511 355.68 388.071 354.28 388.071 352.28C388.071 346.24 373.671 349.88 373.711 339.76C373.711 334.72 377.791 331.68 383.551 331.68C389.271 331.68 393.191 334.6 393.551 339.64H387.391C387.271 337.8 385.791 336.36 383.391 336.32C381.191 336.24 379.551 337.32 379.551 339.6C379.551 345.2 393.871 342.08 393.871 351.92ZM414.657 360V332.08H431.897V336.6H420.257V343.76H429.177V348.2H420.257V360H414.657ZM439.068 360V332.08H444.668V360H439.068ZM468.201 340.76C468.201 338.28 466.801 336.72 463.681 336.72H459.001V344.92H463.681C466.801 344.92 468.201 343.28 468.201 340.76ZM453.401 332.08H463.881C470.601 332.08 473.961 335.96 473.961 340.64C473.961 344.04 472.081 347.48 467.601 348.68L474.281 360H467.801L461.641 349.12H459.001V360H453.401V332.08ZM501.746 351.92C501.746 356.32 498.226 360.28 491.866 360.28C486.066 360.28 481.586 357.24 481.506 351.96H487.506C487.666 354.2 489.146 355.68 491.746 355.68C494.386 355.68 495.946 354.28 495.946 352.28C495.946 346.24 481.546 349.88 481.586 339.76C481.586 334.72 485.666 331.68 491.426 331.68C497.146 331.68 501.066 334.6 501.426 339.64H495.266C495.146 337.8 493.666 336.36 491.266 336.32C489.066 336.24 487.426 337.32 487.426 339.6C487.426 345.2 501.746 342.08 501.746 351.92ZM508.321 336.6V332.08H528.801V336.6H521.361V360H515.761V336.6H508.321Z" fill="black"/>
</svg>
