<svg width="646" height="386" viewBox="0 0 646 386" fill="none" xmlns="http://www.w3.org/2000/svg">
<path d="M82.0655 201.8C82.0655 207.284 80.7992 212.292 78.283 216.831C75.7832 221.37 71.9185 225.038 66.7052 227.817C61.5083 230.605 55.0451 231.994 47.332 231.994H33.0241V265.938H10V171.375H47.332C54.8724 171.375 61.2451 172.682 66.442 175.289C71.6553 177.879 75.5612 181.465 78.1514 186.045C80.7581 190.633 82.0655 195.879 82.0655 201.8ZM45.5558 213.674C49.9633 213.674 53.236 212.646 55.3904 210.582C57.5613 208.501 58.6467 205.574 58.6467 201.8C58.6467 198.034 57.5613 195.115 55.3904 193.051C53.236 190.995 49.9633 189.959 45.5558 189.959H33.0241V213.674H45.5558Z" fill="white"/>
<path d="M89.4854 228.192C89.4854 220.479 90.9408 213.703 93.8599 207.865C96.7708 202.01 100.743 197.52 105.767 194.379C110.807 191.246 116.424 189.676 122.607 189.676C127.911 189.676 132.557 190.753 136.553 192.899C140.566 195.054 143.641 197.882 145.796 201.385V190.728H168.82V265.919H145.796V255.262C143.534 258.773 140.41 261.61 136.422 263.781C132.425 265.927 127.779 267.004 122.476 267.004C116.374 267.004 110.807 265.417 105.767 262.235C100.743 259.036 96.7708 254.497 93.8599 248.618C90.9408 242.722 89.4854 235.913 89.4854 228.192ZM145.796 228.323C145.796 222.584 144.192 218.053 140.994 214.739C137.811 211.409 133.93 209.74 129.35 209.74C124.762 209.74 120.872 211.384 117.673 214.673C114.491 217.946 112.904 222.452 112.904 228.192C112.904 233.94 114.491 238.503 117.673 241.875C120.872 245.23 124.762 246.907 129.35 246.907C133.93 246.907 137.811 245.254 140.994 241.941C144.192 238.61 145.796 234.071 145.796 228.323Z" fill="white"/>
<path d="M262.363 190.695L215.197 301.573H190.396L207.664 263.32L177.075 190.695H202.796L220.196 237.73L237.431 190.695H262.363Z" fill="white"/>
<path d="M333.461 201.271C331.75 198.138 329.292 195.737 326.093 194.068C322.911 192.407 319.161 191.568 314.844 191.568C307.386 191.568 301.408 194.018 296.918 198.903C292.445 203.795 290.208 210.333 290.208 218.506C290.208 227.239 292.56 234.048 297.28 238.932C301.991 243.825 308.479 246.267 316.752 246.267C322.409 246.267 327.186 244.836 331.092 241.958C334.99 239.088 337.843 234.952 339.644 229.558H310.404V212.586H360.53V233.998C358.82 239.746 355.909 245.099 351.814 250.049C347.736 254.983 342.547 258.979 336.256 262.022C329.982 265.073 322.902 266.594 315.008 266.594C305.667 266.594 297.329 264.555 290.011 260.476C282.684 256.397 276.969 250.724 272.874 243.438C268.796 236.161 266.756 227.847 266.756 218.506C266.756 209.165 268.796 200.843 272.874 193.541C276.969 186.223 282.651 180.516 289.912 176.438C297.189 172.343 305.503 170.287 314.844 170.287C326.175 170.287 335.73 173.034 343.493 178.51C351.255 183.995 356.394 191.584 358.919 201.271H333.461Z" fill="white"/>
<path d="M407.516 267.004C400.148 267.004 393.52 265.442 387.649 262.3C381.77 259.143 377.14 254.653 373.769 248.815C370.414 242.985 368.736 236.152 368.736 228.323C368.736 220.61 370.43 213.81 373.835 207.931C377.255 202.035 381.926 197.52 387.846 194.379C393.783 191.246 400.444 189.676 407.812 189.676C415.155 189.676 421.791 191.246 427.711 194.379C433.648 197.52 438.319 202.035 441.723 207.931C445.144 213.81 446.854 220.61 446.854 228.323C446.854 236.045 445.119 242.853 441.657 248.749C438.212 254.629 433.5 259.143 427.514 262.3C421.544 265.442 414.883 267.004 407.516 267.004ZM407.516 247.072C411.923 247.072 415.673 245.46 418.764 242.237C421.873 238.997 423.435 234.359 423.435 228.323C423.435 222.321 421.922 217.699 418.896 214.476C415.886 211.236 412.194 209.608 407.812 209.608C403.314 209.608 399.572 211.212 396.596 214.41C393.635 217.593 392.155 222.23 392.155 228.323C392.155 234.359 393.611 238.997 396.53 242.237C399.465 245.46 403.125 247.072 407.516 247.072Z" fill="white"/>
<path d="M469.926 267.015C465.864 267.015 462.559 265.83 459.993 263.462C457.444 261.078 456.178 258.126 456.178 254.614C456.178 251.021 457.444 248.02 459.993 245.602C462.559 243.168 465.864 241.951 469.926 241.951C473.873 241.951 477.113 243.168 479.662 245.602C482.228 248.02 483.511 251.021 483.511 254.614C483.511 258.126 482.228 261.078 479.662 263.462C477.113 265.83 473.873 267.015 469.926 267.015Z" fill="white"/>
<path d="M534.861 209.868H522.461V265.916H499.437V209.868H491.083V190.726H499.437V188.588C499.437 179.337 502.077 172.306 507.364 167.504C512.668 162.702 520.438 160.301 530.684 160.301C532.394 160.301 533.652 160.35 534.467 160.432V179.97C530.059 179.69 526.951 180.315 525.158 181.845C523.357 183.382 522.461 186.121 522.461 190.068V190.726H534.861V209.868Z" fill="white"/>
<path d="M557.213 182.932C553.176 182.932 549.878 181.748 547.313 179.38C544.747 176.995 543.464 174.043 543.464 170.532C543.464 166.938 544.747 163.953 547.313 161.585C549.878 159.201 553.176 158 557.213 158C561.16 158 564.416 159.201 566.982 161.585C569.547 163.953 570.83 166.938 570.83 170.532C570.83 174.043 569.547 176.995 566.982 179.38C564.416 181.748 561.16 182.932 557.213 182.932ZM568.659 190.727V265.917H545.635V190.727H568.659Z" fill="white"/>
<path d="M627.266 246.37V265.907H615.523C607.185 265.907 600.689 263.868 596.019 259.79C591.348 255.695 589.013 249.018 589.013 239.759V209.86H579.836V190.717H589.013V172.396H612.037V190.717H627.134V209.86H612.037V240.055C612.037 242.291 612.571 243.903 613.649 244.89C614.717 245.876 616.518 246.37 619.043 246.37H627.266Z" fill="white"/>
<path d="M32.1 38.8045C30.1703 39.5154 28.7891 40.9576 28.1594 42.867C27.9766 43.4357 27.7937 43.9029 27.7734 43.9232C27.7531 43.9639 27.3062 43.842 26.7781 43.6592C25.3969 43.192 23 43.3342 21.6797 43.9842C20.2984 44.6545 19.0594 45.9951 18.5516 47.356C18.1453 48.4123 18.125 48.8795 18.125 56.4764V64.4998H17.4141C15.3422 64.4998 12.8438 66.3279 12.0516 68.4607C11.4828 69.9842 11.4828 72.0154 12.0516 73.5389C12.8438 75.6514 15.3422 77.4998 17.4141 77.4998H18.1047L18.1656 85.767L18.2266 94.0545L18.7141 95.0498C19.3234 96.2889 20.4812 97.4264 21.7406 98.056C23 98.6654 25.4172 98.8076 26.7781 98.3404C27.3062 98.1576 27.7531 98.0357 27.7734 98.0764C27.7937 98.0967 27.9766 98.5842 28.1594 99.1529C28.8094 101.123 30.4344 102.708 32.4656 103.297C33.7453 103.683 36.1219 103.479 37.3 102.89C38.6609 102.24 39.9609 100.839 40.4687 99.4982C40.8547 98.4623 40.875 97.9139 40.875 87.9607V77.4998H62H83.125V87.9607C83.125 98.0154 83.1453 98.442 83.5516 99.5185C84.0391 100.819 85.3187 102.24 86.5984 102.911C87.8172 103.54 90.3969 103.683 91.7984 103.215C93.7687 102.565 95.1703 101.123 95.8406 99.1326C96.0234 98.5639 96.2062 98.0967 96.2266 98.0764C96.2469 98.0357 96.6937 98.1576 97.2219 98.3404C98.5828 98.8076 101 98.6654 102.259 98.056C103.62 97.3857 104.981 95.9436 105.469 94.6232C105.855 93.5873 105.875 93.0592 105.875 85.5232V77.4998H106.586C108.658 77.4998 111.156 75.6717 111.948 73.5389C112.517 72.0154 112.517 69.9842 111.948 68.4607C111.156 66.3279 108.658 64.4998 106.586 64.4998H105.875V56.4764C105.875 48.8795 105.855 48.4123 105.448 47.356C104.941 45.9951 103.702 44.6545 102.32 43.9842C101 43.3342 98.6031 43.192 97.2219 43.6592C96.6937 43.842 96.2469 43.9639 96.2266 43.9232C96.2062 43.9029 96.0234 43.4154 95.8406 42.8467C95.2109 40.8967 93.7891 39.4545 91.7781 38.7842C90.4172 38.317 87.8172 38.4592 86.5984 39.0889C85.3187 39.7592 84.0391 41.181 83.5516 42.481C83.1453 43.5576 83.125 43.9842 83.125 54.0389V64.4998H62H40.875V54.0389C40.875 43.9842 40.8547 43.5576 40.4484 42.481C39.9406 41.1201 38.7016 39.7795 37.3203 39.1092C36.0812 38.4998 33.3187 38.3373 32.1 38.8045ZM36 42.4201C36.3859 42.6639 36.8734 43.192 37.0969 43.5779C37.5234 44.2889 37.5234 44.4107 37.5234 70.9998C37.5234 97.5889 37.5234 97.7107 37.0969 98.4217C35.8172 100.595 32.9328 100.595 31.6531 98.4217C31.2266 97.7107 31.2266 97.5889 31.2266 70.9998C31.2266 44.4107 31.2266 44.2889 31.6531 43.5779C32.2625 42.542 33.2375 41.9529 34.375 41.9529C35.025 41.9529 35.5531 42.0951 36 42.4201ZM91.25 42.4201C91.6359 42.6639 92.1234 43.192 92.3469 43.5779C92.7734 44.2889 92.7734 44.4107 92.7734 70.9998C92.7734 97.5889 92.7734 97.7107 92.3469 98.4217C91.0672 100.595 88.1828 100.595 86.9031 98.4217C86.4766 97.7107 86.4766 97.5889 86.4766 70.9998C86.4766 44.4107 86.4766 44.2889 86.9031 43.5779C87.5125 42.542 88.4875 41.9529 89.625 41.9529C90.275 41.9529 90.8031 42.0951 91.25 42.4201ZM26.25 47.2951C26.6359 47.5389 27.1234 48.067 27.3469 48.4529C27.7734 49.1639 27.7734 49.3467 27.7734 70.9998C27.7734 92.6529 27.7734 92.8357 27.3469 93.5467C26.0672 95.7201 23.1828 95.7201 21.9031 93.5467C21.4766 92.8357 21.4766 92.6529 21.4766 70.9998C21.4766 49.3467 21.4766 49.1639 21.9031 48.4529C22.5125 47.417 23.4875 46.8279 24.625 46.8279C25.275 46.8279 25.8031 46.9701 26.25 47.2951ZM101 47.2951C101.386 47.5389 101.873 48.067 102.097 48.4529C102.523 49.1639 102.523 49.3467 102.523 70.9998C102.523 92.6529 102.523 92.8357 102.097 93.5467C100.817 95.7201 97.9328 95.7201 96.6531 93.5467C96.2266 92.8357 96.2266 92.6529 96.2266 70.9998C96.2266 49.3467 96.2266 49.1639 96.6531 48.4529C97.2625 47.417 98.2375 46.8279 99.375 46.8279C100.025 46.8279 100.553 46.9701 101 47.2951ZM83.125 70.9998V74.2498H62H40.875V70.9998V67.7498H62H83.125V70.9998ZM18.125 70.9998C18.125 74.0264 18.125 74.0467 17.6781 74.0467C16.3781 74.0467 15.0781 72.5029 15.0781 70.9998C15.0781 69.4967 16.3781 67.9529 17.6781 67.9529C18.125 67.9529 18.125 67.9732 18.125 70.9998ZM107.459 68.3592C109.409 69.5576 109.409 72.442 107.459 73.6404C107.094 73.8639 106.586 74.0467 106.342 74.0467C105.875 74.0467 105.875 74.0264 105.875 70.9998C105.875 67.9732 105.875 67.9529 106.342 67.9529C106.586 67.9529 107.094 68.1357 107.459 68.3592Z" fill="white"/>
<path d="M250.321 40.9599C249.299 41.3562 218.892 55.7467 216.889 56.7686C212.406 59.0836 210.591 64.2141 212.656 68.7189C212.948 69.3655 214.074 71.4719 215.2 73.4323C216.306 75.3928 217.119 77.0612 217.035 77.1655C216.931 77.2489 210.508 81.0447 202.791 85.5912L188.713 93.8501H187.191C184.855 93.8501 184 94.4966 184 96.2693C184 96.8325 184.167 97.187 184.688 97.6875C185.293 98.3132 185.502 98.3758 187.066 98.5009C189.172 98.6678 190.59 99.1474 193.156 100.607C196.534 102.526 199.204 103.173 202.874 102.943C206.107 102.755 207.901 102.151 211.842 99.8982C215.492 97.8335 219.976 97.9795 223.834 100.315C226.796 102.088 228.84 102.755 231.968 102.964C235.493 103.173 238.371 102.484 241.624 100.628C244.774 98.8137 245.608 98.5635 248.549 98.5635C251.489 98.5635 252.177 98.772 255.16 100.461C258.726 102.484 261.521 103.173 265.233 102.964C267.944 102.797 269.592 102.276 272.971 100.503C275.828 99.0014 277.58 98.4383 279.498 98.4383C280.479 98.4383 280.687 98.3549 281.313 97.7292C282.105 96.9367 282.251 95.9357 281.709 94.9137C281.25 94.0169 280.416 93.7667 278.185 93.9127C275.724 94.0586 273.429 94.8094 270.614 96.4153C267.903 97.9587 266.61 98.3132 263.982 98.2924C261.583 98.2715 259.957 97.8335 257.996 96.6448C256.223 95.5603 253.908 94.5592 252.553 94.2463L251.364 93.9961L242.438 80.9404C237.516 73.766 233.428 67.7804 233.345 67.6344C233.24 67.4467 236.911 65.528 245.253 61.336C253.658 57.1231 257.6 55.0584 258.267 54.4745C260.165 52.7851 261.229 49.7193 260.77 47.2167C260.29 44.6097 258.684 42.4616 256.411 41.3771C255.41 40.8765 254.91 40.7931 253.137 40.7305C251.739 40.6888 250.801 40.7722 250.321 40.9599ZM254.576 45.7359C255.702 46.3616 256.203 47.3627 256.098 48.7183C255.952 50.7204 256.328 50.491 242.625 57.3317C234.846 61.2317 229.987 63.797 229.632 64.1515C228.464 65.382 228.068 67.5719 228.715 69.136C228.882 69.5323 232.74 75.2468 237.266 81.8372C241.812 88.4484 245.524 93.8709 245.524 93.9335C245.524 93.9752 245.024 94.1212 244.44 94.2672C243.147 94.5592 240.456 95.7897 238.955 96.749C237.245 97.8335 235.535 98.2715 233.011 98.2715C230.3 98.2715 229.09 97.917 226.233 96.2693C225.086 95.6228 223.396 94.8303 222.479 94.5175C220.936 93.9961 220.56 93.9544 217.369 93.9544C214.137 93.9752 213.824 93.9961 212.26 94.5383C211.342 94.872 209.715 95.6437 208.651 96.2693C205.878 97.8752 204.585 98.2715 202.04 98.2924C199.621 98.3132 198.182 97.9587 196.055 96.8116C195.262 96.3945 194.636 95.9982 194.636 95.9357C194.636 95.8731 200.142 92.5987 206.879 88.6362C213.615 84.6736 219.517 81.1698 219.997 80.857C221.665 79.7516 222.416 77.2281 221.645 75.351C221.478 74.9339 220.268 72.7649 218.996 70.5334C216.994 67.0296 216.66 66.2788 216.577 65.3403C216.452 63.943 216.91 62.6708 217.849 61.7948C218.287 61.3568 223.125 58.9584 232.281 54.6413C239.852 51.0541 247.401 47.4878 249.07 46.6953C252.449 45.0894 253.22 44.9642 254.576 45.7359Z" fill="white"/>
<path d="M260.417 59.934C257.288 60.6431 254.827 62.0196 252.512 64.3346C249.134 67.7341 247.674 71.4673 247.882 76.3266C248.07 80.6438 249.53 83.9181 252.596 86.9631C255.536 89.8829 258.769 91.3011 262.961 91.4888C266.089 91.6556 268.112 91.2385 270.97 89.8412C272.867 88.9235 273.368 88.5481 275.036 86.8796C277.101 84.8149 278.248 82.9379 279.103 80.185C279.729 78.2037 279.896 74.4913 279.458 72.4266C278.207 66.5662 274.098 62.0822 268.363 60.2677C266.486 59.6838 262.314 59.4961 260.417 59.934ZM266.006 64.5432C268.279 65.0228 270.01 65.9613 271.7 67.6507C273.889 69.8405 275.12 72.7395 275.141 75.7218C275.141 77.0357 274.432 79.6844 273.743 80.9775C272.45 83.355 269.927 85.4615 267.257 86.3791C265.297 87.0465 262.252 87.0465 260.291 86.3791C256.433 85.0443 253.555 81.8117 252.721 77.8908C252.345 76.0555 252.345 75.1379 252.721 73.3026C253.618 69.048 257.163 65.4817 261.439 64.5432C263.149 64.1678 264.296 64.1678 266.006 64.5432Z" fill="white"/>
<path d="M383.522 104.028C384.26 103.924 385.562 103.524 386.415 103.162C387.829 102.565 388.508 102.031 393.522 97.5555L399.069 92.5991L401.749 91.926C404.923 91.1161 416.233 88.3531 427.665 85.5965C432.176 84.511 436.01 83.5323 436.178 83.4394C436.579 83.1554 437.215 80.7278 437.301 79.0849C437.491 75.4544 436.249 72.3793 433.954 70.7744C433.306 70.3337 433.288 70.292 433.357 68.9737C433.445 67.2903 433.098 65.3807 432.479 63.9856C431.571 61.9043 429.292 59.9951 427.201 59.5397L426.396 59.3755L426.338 58.1522C426.21 54.7694 423.846 52.144 419.899 51.0016L418.517 50.6038L418.354 49.436C417.777 45.7042 414.2 42.9339 409.679 42.6766C408.36 42.6075 408.321 42.5851 407.95 41.8945C406.929 40.0309 404.809 38.5775 402.317 37.9995C400.769 37.654 397.964 37.629 396.543 37.9613L395.617 38.1771L394.744 40.4703C394.272 41.7268 392.131 47.6549 390.027 53.646C387.903 59.636 385.376 66.7235 384.38 69.417L382.619 74.3074L377.11 79.3065C372.113 83.8444 371.512 84.4434 370.77 85.7875C368.119 90.5906 368.704 96.1125 372.317 100.125C375.22 103.328 379.234 104.738 383.522 104.028ZM378.731 101.153C374.21 99.7161 371.252 95.2291 371.874 90.7264C372.07 89.313 372.705 87.6786 373.519 86.501L374.006 85.7537L380.406 92.8616L386.806 99.9695L385.575 100.556C383.24 101.654 380.931 101.858 378.731 101.153ZM382.376 90.9717L375.938 83.8211L379.523 80.6126L383.088 77.3827L389.565 84.576L396.061 91.7906L392.539 94.9618C390.597 96.7107 388.977 98.1308 388.916 98.1276C388.855 98.1244 385.912 94.8992 382.376 90.9717ZM414.703 81.4598C423.901 76.715 431.59 72.8063 431.774 72.7753C432.289 72.6599 433.769 74.3035 434.253 75.5491C434.612 76.4628 434.666 76.9741 434.57 78.7995C434.508 79.9961 434.351 81.0455 434.243 81.1619C434.116 81.2569 428.696 82.6202 422.167 84.1898C415.659 85.7401 407.644 87.6996 404.346 88.5437C401.069 89.3685 398.309 90.0373 398.186 90.0512C398.084 90.0662 405.507 86.1843 414.703 81.4598ZM395.205 85.624C395.545 85.3368 402.462 79.8624 410.628 73.4568C424.691 62.4182 425.474 61.8288 426.076 61.9823C428.024 62.4505 429.465 63.6853 430.18 65.5532C430.612 66.6334 430.687 67.1457 430.612 68.5655L430.543 70.2702L413.404 79.0935L396.264 87.9167L395.437 87.0192L394.628 86.143L395.205 85.624ZM392.052 79.8049C392.934 78.8952 399.103 72.5478 405.747 65.6963L417.809 53.2512L418.715 53.4208C420.063 53.6948 421.823 54.6615 422.549 55.5538C423.351 56.5517 423.806 57.9585 423.668 59.0292L423.563 59.8779L408.184 71.9661L392.806 84.0543L391.613 82.7512L390.419 81.4684L392.052 79.8049ZM387.272 77.1138C387.449 76.8384 392.203 69.5625 397.839 60.9703L408.075 45.3381L409.799 45.4285C411.217 45.5232 411.7 45.6298 412.749 46.1729C414.531 47.1002 415.609 48.6616 415.871 50.6481C415.96 51.263 415.27 52.0199 402.286 65.3726L388.614 79.4417L387.787 78.5238C386.998 77.669 386.981 77.6071 387.272 77.1138ZM387.154 69.664C388.297 66.4699 391.106 58.665 393.352 52.2949C395.618 45.9259 397.542 40.6372 397.65 40.5208C397.777 40.4258 398.837 40.3797 400.034 40.4424C401.859 40.5381 402.362 40.6458 403.233 41.0982C404.342 41.6647 405.883 43.3115 405.756 43.793C405.679 44.094 385.158 75.5387 385.08 75.4736C385.06 75.4523 385.991 72.8368 387.154 69.664Z" fill="white"/>
<path d="M570.967 37.8824C564.975 38.5583 558.8 41.171 553.952 45.0706C552.392 46.3185 549.493 49.3082 548.324 50.868C545.594 54.5076 543.631 58.6412 542.565 62.9697C541.824 65.9984 541.72 66.9733 541.72 71.0028C541.72 75.0324 541.824 76.0073 542.565 79.036C543.436 82.5586 545.126 86.4452 547.063 89.3309C550.845 94.9853 556.383 99.5218 562.414 101.927C566.6 103.59 570.278 104.279 574.932 104.279C580.417 104.279 585.136 103.187 589.802 100.848C593.338 99.0669 596.041 97.0781 598.849 94.1924C603.958 88.9409 607.116 82.3636 608.013 75.1624C608.273 73.0436 608.273 68.9621 608.013 66.8433C607.272 60.9029 604.815 55.0146 601.098 50.2961C600.149 49.0872 596.847 45.7855 595.638 44.8366C590.907 41.106 585.045 38.6623 579.091 37.9214C577.31 37.7004 572.735 37.6744 570.967 37.8824ZM578.311 41.886C586.929 42.9518 594.651 47.7223 599.395 54.9366C600.214 56.1844 601.176 57.8872 601.514 58.7062L601.735 59.2131L600.903 58.5502C598.056 56.2234 594.495 54.3256 590.855 53.2077C584.46 51.232 577.232 51.5049 571.175 53.9617L570.486 54.2476L570.577 53.3637C570.98 49.4121 572.488 45.7725 575.023 42.6269L575.725 41.756H576.466C576.881 41.756 577.713 41.821 578.311 41.886ZM570.057 42.5619C569.394 43.6278 568.055 46.5135 567.652 47.7353C567.431 48.4113 567.094 49.6981 566.912 50.595C566.587 52.1029 566.561 52.4538 566.561 55.3395C566.561 58.2382 566.587 58.5762 566.912 60.097C567.107 61.0069 567.444 62.2938 567.665 62.9567C568.497 65.5044 570.291 68.7411 571.942 70.7299L572.644 71.5618L572.41 72.2247C571.474 74.9284 569.212 78.2821 567.029 80.1929L566.262 80.8688L565.105 79.9979C559.177 75.5394 555.512 68.7931 554.914 61.2279C554.602 57.3803 555.382 52.8698 556.955 49.4381C558.02 47.0724 558.007 47.0984 559.268 46.2795C562.167 44.3817 566.496 42.7049 569.992 42.1069C570.174 42.0809 570.33 42.0419 570.356 42.0289C570.382 42.0289 570.239 42.2629 570.057 42.5619ZM551.196 54.6506C550.481 58.7452 550.767 63.5156 551.976 67.7012C553.081 71.5358 554.901 75.0844 557.319 78.0871C558.293 79.309 560.477 81.5057 561.647 82.4546L562.609 83.2215L561.647 83.6635C558.124 85.2883 553.432 85.8343 549.766 85.0413L549.09 84.8984L548.414 83.4425C547.154 80.7258 546.192 77.3722 545.815 74.3825C545.75 73.7845 545.685 72.2637 545.685 71.0028C545.685 68.4811 545.802 67.2592 546.257 65.0235C547.011 61.4099 548.531 57.8093 550.65 54.6506C551.001 54.1436 551.3 53.7147 551.313 53.7147C551.339 53.7147 551.287 54.1436 551.196 54.6506ZM585.292 56.1194C592.259 57.0293 598.498 60.6689 602.58 66.2064C604.244 68.4551 604.179 68.2471 604.179 71.0158C604.179 74.4345 603.763 77.0602 602.736 80.1929C602.515 80.8558 602.32 81.4017 602.294 81.4017C602.268 81.4017 601.93 80.8558 601.527 80.1929C598.251 74.6295 592.818 70.5349 586.656 69.0011C584.304 68.4161 583.576 68.3381 580.521 68.3511C578.35 68.3511 577.349 68.4161 576.621 68.5721L575.647 68.7801L575.218 68.2991C574.035 66.9603 572.631 64.6075 571.903 62.7487C571.448 61.5919 570.772 59.2391 570.772 58.7841C570.772 58.3942 573.892 57.1593 576.362 56.5744C579.169 55.9245 582.458 55.7555 585.292 56.1194ZM583.927 72.5497C585.305 72.7967 587.488 73.3816 587.696 73.5896C587.748 73.6416 587.735 74.2005 587.657 74.8374C586.799 82.4416 582.445 89.4349 576.011 93.5424C574.776 94.3224 572.436 95.4922 571.11 95.9732C568.77 96.8441 565.352 97.52 563.324 97.52C562.414 97.52 562.336 97.494 560.971 96.7271C558.137 95.1543 555.694 93.2565 553.562 90.9947C552.873 90.2668 552.314 89.6169 552.314 89.5649C552.314 89.4999 552.808 89.4609 553.406 89.4609C563.35 89.4609 572.293 83.4425 575.933 74.3175C576.271 73.4596 576.556 72.7447 576.569 72.7187C576.582 72.6927 577.063 72.5887 577.622 72.4977C579.208 72.2377 582.185 72.2637 583.927 72.5497ZM592.857 76.4233C595.651 78.516 598.082 81.7267 599.421 85.1323L599.902 86.3412L599.252 87.2901C595.21 93.2825 589.009 97.663 582.094 99.4048C579.455 100.055 577.804 100.263 574.854 100.263C573.554 100.263 572.332 100.224 572.137 100.172C571.812 100.094 571.903 100.029 572.995 99.5998C582.38 95.9602 589.321 87.6671 591.31 77.7361C591.453 77.0212 591.57 76.2673 591.57 76.0593C591.57 75.8513 591.635 75.6823 591.726 75.6823C591.804 75.6823 592.311 76.0203 592.857 76.4233Z" fill="white"/>
<path d="M100.92 356.28L91.44 338.08H97.76L103.76 350.84L109.72 338.08H115.96L106.52 356.28V366H100.92V356.28ZM149.63 351.96C149.63 360.36 143.27 366.28 135.35 366.28C127.47 366.28 121.03 360.36 121.03 351.96C121.03 343.6 127.47 337.68 135.35 337.68C143.31 337.68 149.63 343.6 149.63 351.96ZM126.79 351.96C126.79 357.64 130.27 361.28 135.35 361.28C140.39 361.28 143.87 357.64 143.87 351.96C143.87 346.28 140.39 342.72 135.35 342.72C130.27 342.72 126.79 346.28 126.79 351.96ZM156.916 355.32V338.08H162.516V355.36C162.516 359.2 164.596 361.2 168.156 361.2C171.756 361.2 173.836 359.2 173.836 355.36V338.08H179.476V355.32C179.476 362.68 174.196 366.28 168.076 366.28C161.956 366.28 156.916 362.68 156.916 355.32ZM202.887 346.76C202.887 344.28 201.487 342.72 198.367 342.72H193.687V350.92H198.367C201.487 350.92 202.887 349.28 202.887 346.76ZM188.087 338.08H198.567C205.287 338.08 208.647 341.96 208.647 346.64C208.647 350.04 206.767 353.48 202.287 354.68L208.967 366H202.487L196.327 355.12H193.687V366H188.087V338.08ZM229.643 366V338.08H246.883V342.6H235.243V349.76H244.163V354.2H235.243V366H229.643ZM254.054 366V338.08H259.654V366H254.054ZM266.907 342.6V338.08H287.387V342.6H279.947V366H274.347V342.6H266.907ZM312.953 338.04H318.553V366H312.953L300.273 346.84V366H294.673V338.04H300.273L312.953 357.24V338.04ZM343.487 338.04V342.6H332.887V349.6H342.287V354.04H332.887V361.44H343.487V366H327.287V338.04H343.487ZM371.296 357.92C371.296 362.32 367.776 366.28 361.416 366.28C355.616 366.28 351.136 363.24 351.056 357.96H357.056C357.216 360.2 358.696 361.68 361.296 361.68C363.936 361.68 365.496 360.28 365.496 358.28C365.496 352.24 351.096 355.88 351.136 345.76C351.136 340.72 355.216 337.68 360.976 337.68C366.696 337.68 370.616 340.6 370.976 345.64H364.816C364.696 343.8 363.216 342.36 360.816 342.32C358.616 342.24 356.976 343.32 356.976 345.6C356.976 351.2 371.296 348.08 371.296 357.92ZM398.871 357.92C398.871 362.32 395.351 366.28 388.991 366.28C383.191 366.28 378.711 363.24 378.631 357.96H384.631C384.791 360.2 386.271 361.68 388.871 361.68C391.511 361.68 393.071 360.28 393.071 358.28C393.071 352.24 378.671 355.88 378.711 345.76C378.711 340.72 382.791 337.68 388.551 337.68C394.271 337.68 398.191 340.6 398.551 345.64H392.391C392.271 343.8 390.791 342.36 388.391 342.32C386.191 342.24 384.551 343.32 384.551 345.6C384.551 351.2 398.871 348.08 398.871 357.92ZM419.657 366V338.08H436.897V342.6H425.257V349.76H434.177V354.2H425.257V366H419.657ZM444.068 366V338.08H449.668V366H444.068ZM473.201 346.76C473.201 344.28 471.801 342.72 468.681 342.72H464.001V350.92H468.681C471.801 350.92 473.201 349.28 473.201 346.76ZM458.401 338.08H468.881C475.601 338.08 478.961 341.96 478.961 346.64C478.961 350.04 477.081 353.48 472.601 354.68L479.281 366H472.801L466.641 355.12H464.001V366H458.401V338.08ZM506.746 357.92C506.746 362.32 503.226 366.28 496.866 366.28C491.066 366.28 486.586 363.24 486.506 357.96H492.506C492.666 360.2 494.146 361.68 496.746 361.68C499.386 361.68 500.946 360.28 500.946 358.28C500.946 352.24 486.546 355.88 486.586 345.76C486.586 340.72 490.666 337.68 496.426 337.68C502.146 337.68 506.066 340.6 506.426 345.64H500.266C500.146 343.8 498.666 342.36 496.266 342.32C494.066 342.24 492.426 343.32 492.426 345.6C492.426 351.2 506.746 348.08 506.746 357.92ZM513.321 342.6V338.08H533.801V342.6H526.361V366H520.761V342.6H513.321Z" fill="white"/>
</svg>
