<?xml version="1.0" encoding="UTF-8" standalone="no"?>
<svg
   width="200"
   height="200"
   viewBox="0 0 52.917 52.917"
   version="1.1"
   xmlns="http://www.w3.org/2000/svg"
   xmlns:svg="http://www.w3.org/2000/svg">
  <g>
    <!-- Main Circle -->
    <circle
       style="fill:#118347;fill-opacity:1;stroke:none;stroke-width:0.5"
       cx="26.458"
       cy="26.458"
       r="23.151" />
    
    <!-- Inner Circle -->
    <circle
       style="fill:#0A5D31;fill-opacity:1;stroke:none;stroke-width:0.5"
       cx="26.458"
       cy="26.458"
       r="18.521" />
    
    <!-- P -->
    <path
       style="fill:#ffffff;fill-opacity:1;stroke:none;stroke-width:0.5"
       d="m 15.198,19.844 v 15.875 h 3.175 v -5.292 h 3.175 c 2.646,0 4.763,-2.117 4.763,-4.763 0,-2.646 -2.117,-4.763 -4.763,-4.763 h -6.35 z m 3.175,3.175 h 3.175 c 0.882,0 1.588,0.706 1.588,1.588 0,0.882 -0.706,1.588 -1.588,1.588 h -3.175 z" />
    
    <!-- G -->
    <path
       style="fill:#ffffff;fill-opacity:1;stroke:none;stroke-width:0.5"
       d="m 27.517,19.844 c -3.528,0 -6.35,2.822 -6.35,6.35 0,3.528 2.822,6.35 6.35,6.35 2.646,0 4.903,-1.588 5.821,-3.969 h -3.704 c -0.529,0.529 -1.323,0.794 -2.117,0.794 -1.588,0 -2.822,-1.147 -3.175,-2.646 h 9.525 v -0.529 c 0,-3.528 -2.822,-6.35 -6.35,-6.35 z m 0,3.175 c 1.588,0 2.822,1.147 3.175,2.646 h -6.35 c 0.353,-1.499 1.588,-2.646 3.175,-2.646 z" />
    
    <!-- O -->
    <path
       style="fill:#ffffff;fill-opacity:1;stroke:none;stroke-width:0.5"
       d="m 37.042,19.844 c -3.528,0 -6.35,2.822 -6.35,6.35 0,3.528 2.822,6.35 6.35,6.35 3.528,0 6.35,-2.822 6.35,-6.35 0,-3.528 -2.822,-6.35 -6.35,-6.35 z m 0,3.175 c 1.764,0 3.175,1.411 3.175,3.175 0,1.764 -1.411,3.175 -3.175,3.175 -1.764,0 -3.175,-1.411 -3.175,-3.175 0,-1.764 1.411,-3.175 3.175,-3.175 z" />
  </g>
</svg> 